:SAMPLES-PER-SECOND 30
:FULLY-SPECIFIED
:DEGREES
94
root  -21.4449 39.1507 -1.77816 -80.5799 83.9564 -79.2141
RightUpLeg  -12.7285 4.7164 10.057
RightLeg  12.2292 1.5138 -1.24744
RightFoot  -1.68397 0.0209901 -0.199874
RightToes  5.82075e-010 -1.59028e-015 9.93923e-017
Spine  6.99441 -1.86667 3.26059
Spine1  12.1971 -3.65403 5.1634
HEad  -16.8359 4.17029 2.32397
LeftShoulder1  9.93923e-017 0 1.22299e-017
LeftArm  28.0234 25.2505 -81.1417
LeftForeArm  -40.7028 -27.6279 18.2853
LeftHand  0.327783 4.17042 9.50962
RightShoulder  1.98785e-016 -4.96962e-017 1.55301e-017
RightArm  1.0878 -53.2186 74.4649
RightForeArm  -15.5139 10.4683 4.50617
RightHand  1.46993 -12.9097 -4.75168
LeftUpLeg  3.41387 -6.17153 6.56465
LeftLeg  18.4009 -7.85627 0.624675
LeftFoot  -17.3508 -0.262838 -6.19421
LeftToes  1.8463e-010 2.29954e-012 -3.51709e-011
95
root  -20.6238 39.1267 -1.50703 -85.8085 83.3818 -83.7302
RightUpLeg  -10.8338 3.90037 11.1644
RightLeg  12.9952 1.80114 -1.14943
RightFoot  -3.63795 0.0267705 -0.312721
RightToes  5.82075e-010 -1.59028e-015 9.93923e-017
Spine  6.83672 -1.82078 4.37893
Spine1  12.083 -3.55897 5.61575
HEad  -16.1155 3.34602 2.34137
LeftShoulder1  9.93923e-017 0 1.22299e-017
LeftArm  30.1954 25.8988 -82.9073
LeftForeArm  -42.2336 -25.3756 16.5227
LeftHand  0.261164 3.98596 10.4642
RightShoulder  1.98785e-016 -4.96962e-017 1.55301e-017
RightArm  0.573276 -48.6268 77.6461
RightForeArm  -17.3239 11.3364 3.82712
RightHand  1.50501 -12.899 -5.37752
LeftUpLeg  2.23655 -8.31087 7.48156
LeftLeg  23.7259 -6.87357 1.08924
LeftFoot  -14.477 -0.106274 -7.11003
LeftToes  1.8463e-010 2.29954e-012 -3.51709e-011
96
root  -19.8228 39.1289 -1.27769 -86.9056 83.1431 -84.3699
RightUpLeg  -9.10028 4.02001 11.7813
RightLeg  13.3853 1.49811 -1.06367
RightFoot  -5.45567 0.0355519 -0.530312
RightToes  5.82075e-010 -1.59028e-015 9.93923e-017
Spine  6.28343 -1.59575 5.652
Spine1  12.3818 -3.02403 5.33068
HEad  -15.5846 2.36664 2.36097
LeftShoulder1  9.93923e-017 0 1.22299e-017
LeftArm  28.1744 27.2484 -84.1194
LeftForeArm  -37.9477 -23.6595 12.2444
LeftHand  0.332547 4.11238 8.91686
RightShoulder  1.98785e-016 -4.96962e-017 1.55301e-017
RightArm  3.45046 -43.2423 80.6354
RightForeArm  -20.9683 13.2434 2.06292
RightHand  1.54243 -12.8358 -6.17897
LeftUpLeg  -0.608586 -8.67522 7.9002
LeftLeg  30.2764 -6.94456 1.98681
LeftFoot  -12.2636 0.0356455 -7.17146
LeftToes  1.8463e-010 2.29954e-012 -3.51709e-011
97
root  -18.9848 39.1937 -1.06577 -80.1034 83.3111 -77.4088
RightUpLeg  -7.24555 4.88193 11.944
RightLeg  12.9257 1.27489 -0.989476
RightFoot  -6.72302 0.0408845 -0.731506
RightToes  5.82075e-010 -1.59028e-015 9.93923e-017
Spine  5.20287 -0.885183 6.98247
Spine1  12.9303 -1.76093 4.00728
HEad  -14.9022 1.35021 2.51281
LeftShoulder1  9.93923e-017 0 1.22299e-017
LeftArm  23.3401 29.4044 -84.673
LeftForeArm  -30.4685 -21.5114 6.56014
LeftHand  0.447348 4.35486 6.50514
RightShoulder  1.98785e-016 -4.96962e-017 1.55301e-017
RightArm  10.7477 -37.8521 83.2017
RightForeArm  -28.1614 16.1936 -1.87837
RightHand  1.57006 -12.7651 -6.84249
LeftUpLeg  -4.0549 -7.47306 7.867
LeftLeg  35.5428 -7.17621 2.62567
LeftFoot  -11.1145 0.100587 -6.64292
LeftToes  1.8463e-010 2.29954e-012 -3.51709e-011
98
root  -18.126 39.3034 -0.864085 -66.9006 83.5661 -64.2834
RightUpLeg  -5.36676 5.29783 11.6697
RightLeg  11.9777 2.06982 -0.810051
RightFoot  -7.74496 0.0334244 -0.708258
RightToes  5.82075e-010 -1.59028e-015 9.93923e-017
Spine  3.95813 0.213914 8.37286
Spine1  13.4977 0.072634 1.91501
HEad  -14.1454 0.228445 2.9396
LeftShoulder1  9.93923e-017 0 1.22299e-017
LeftArm  19.2293 32.2203 -84.5195
LeftForeArm  -24.2067 -18.7909 1.59822
LeftHand  0.56696 4.69473 4.18371
RightShoulder  1.98785e-016 -4.96962e-017 1.55301e-017
RightArm  21.9812 -32.7437 85.1631
RightForeArm  -39.3025 18.9311 -8.70905
RightHand  1.59076 -12.7034 -7.37314
LeftUpLeg  -7.61933 -5.41718 7.38186
LeftLeg  38.3218 -7.28093 3.00168
LeftFoot  -10.213 0.147958 -6.35711
LeftToes  1.8463e-010 2.29954e-012 -3.51709e-011
99
root  -17.2662 39.3943 -0.686474 -53.6565 83.5485 -51.2073
RightUpLeg  -3.6579 4.88326 11.1485
RightLeg  11.1928 3.71537 -0.42965
RightFoot  -8.92643 0.0254107 -0.691894
RightToes  5.82075e-010 -1.59028e-015 9.93923e-017
Spine  2.95799 1.36296 9.94937
Spine1  13.9168 2.00528 -0.343076
HEad  -13.5526 -1.1519 3.51945
LeftShoulder1  9.93923e-017 0 1.22299e-017
LeftArm  17.5133 35.6223 -83.7083
LeftForeArm  -21.0063 -16.451 -1.54798
LeftHand  0.707862 5.2818 1.98893
RightShoulder  1.98785e-016 -4.96962e-017 1.55301e-017
RightArm  32.66 -27.8264 86.1145
RightForeArm  -49.3767 20.0764 -16.6543
RightHand  1.60897 -12.5884 -8.02888
LeftUpLeg  -11.2529 -3.61263 6.69994
LeftLeg  38.9224 -7.18559 3.18811
LeftFoot  -8.97857 0.218015 -6.28423
LeftToes  1.8463e-010 2.29954e-012 -3.51709e-011
